<?xml version="1.0" encoding="UTF-8"?>
<svg id="Layer_1" data-name="Layer 1" xmlns="http://www.w3.org/2000/svg" version="1.1" viewBox="0 0 288 216">
  <defs>
    <style>
      .cls-1 {
        fill: none;
        stroke: #b16b33;
        stroke-miterlimit: 10;
        stroke-width: 2px;
      }

      .cls-2 {
        fill: #508b71;
      }

      .cls-2, .cls-3 {
        stroke-width: 0px;
      }

      .cls-3 {
        fill: #0f5138;
      }
    </style>
  </defs>
  <g>
    <path class="cls-2" d="M35.31,157.64c-.23,0-.4-.09-.51-.27-.1-.18-.16-.38-.16-.58.03-.44.13-.69.31-.74.18-.05.4-.08.66-.08.83,0,1.42-.15,1.76-.45.34-.3.55-.68.64-1.13.09-.45.14-.93.14-1.42v-15.48c0-.49-.05-.97-.14-1.42-.09-.45-.31-.83-.64-1.13-.34-.3-.92-.45-1.76-.45-.26,0-.48-.03-.66-.08-.18-.05-.29-.3-.31-.74,0-.21.05-.4.16-.58.1-.18.27-.27.51-.27.83.03,1.62.05,2.36.08.74.03,1.5.04,2.28.04h11.27c.29,0,.53.07.72.2.19.13.29.38.29.74l.12,5.46c0,.26-.12.46-.37.58-.25.13-.48.19-.68.19-.29,0-.55-.06-.8-.17-.25-.12-.4-.29-.45-.53-.16-1.17-.36-2.11-.6-2.83-.25-.71-.61-1.23-1.09-1.56-.48-.33-1.18-.5-2.09-.53h-4.25v10.14h6.98c.21.03.36.13.47.31.1.18.16.38.16.59,0,.18-.05.36-.16.53-.1.17-.26.25-.47.25h-6.98v6.67c.03.49.08.97.16,1.42.08.46.29.83.64,1.13s.93.45,1.74.45c.26,0,.48.03.66.08.18.05.29.3.31.74,0,.21-.05.4-.16.58-.1.18-.29.27-.55.27-1.66-.08-3.28-.12-4.84-.12-.78,0-1.55,0-2.3.02-.75.01-1.55.04-2.38.1Z"/>
    <path class="cls-2" d="M56.25,157.64c-.23,0-.4-.09-.51-.27-.1-.18-.16-.38-.16-.58.03-.44.13-.69.31-.74.18-.05.4-.08.66-.08.83,0,1.42-.15,1.76-.45.34-.3.55-.68.64-1.13.09-.45.14-.93.14-1.42v-15.48c0-.49-.05-.97-.14-1.42-.09-.45-.31-.83-.64-1.13-.34-.3-.92-.45-1.76-.45-.26,0-.48-.03-.66-.08-.18-.05-.29-.3-.31-.74,0-.21.05-.4.16-.58.1-.18.27-.27.51-.27.86.03,1.65.05,2.38.08.73.03,1.48.04,2.26.04h12.25c.29,0,.53.07.72.2.19.13.29.38.29.74l.12,5.46c0,.26-.12.46-.37.58s-.47.19-.68.19c-.29,0-.55-.06-.78-.17-.23-.12-.38-.29-.43-.53-.18-1.17-.4-2.11-.64-2.83-.25-.71-.61-1.23-1.09-1.56-.48-.33-1.18-.5-2.09-.53h-5.23v9.91h7.06c.21.03.36.13.45.31.09.18.14.38.14.58,0,.18-.05.36-.14.53-.09.17-.24.25-.45.25h-7.06v7.37c.03.34.08.71.16,1.11s.31.75.68,1.03c.38.29,1.01.42,1.89.39h3.59c.91-.03,1.6-.17,2.09-.45.48-.27.86-.73,1.15-1.38.29-.65.6-1.55.94-2.69.1-.26.28-.43.53-.51.25-.08.51-.09.8-.04.21.03.42.12.64.27.22.16.32.37.29.62l-.78,4.91c-.08.36-.2.59-.37.68-.17.09-.42.14-.76.14h-12.87c-.78,0-1.54,0-2.28.02-.74.01-1.54.04-2.4.1Z"/>
    <path class="cls-2" d="M80.43,157.64c-.26,0-.44-.09-.55-.27-.1-.18-.16-.38-.16-.58.03-.44.13-.69.31-.74.18-.05.4-.08.66-.08.83,0,1.42-.15,1.76-.45.34-.3.55-.68.64-1.13.09-.45.14-.93.14-1.42v-15.44c0-.49-.05-.98-.14-1.44-.09-.47-.31-.85-.64-1.15-.34-.3-.92-.45-1.76-.45-.26,0-.48-.03-.66-.08-.18-.05-.29-.3-.31-.74,0-.21.05-.4.16-.58.1-.18.29-.27.55-.27.83.03,1.62.05,2.36.08.74.03,1.5.04,2.28.04h6.71c2.11.03,3.82.35,5.13.98,1.31.62,2.27,1.42,2.87,2.38.6.96.9,1.96.9,3,0,1.38-.55,2.68-1.66,3.9-1.11,1.22-2.66,2.09-4.66,2.61.99,1.56,1.99,3.13,3,4.7,1.01,1.57,2.18,3.05,3.51,4.43.36.29.72.52,1.07.7.35.18.77.3,1.27.35.21.03.42.06.62.1s.33.28.35.72c0,.21-.05.4-.16.58-.1.18-.29.27-.55.27-.55-.03-.98-.05-1.31-.06-.33-.01-.64-.03-.96-.04-.31-.01-.73-.02-1.25-.02-1.07-.21-1.97-.58-2.71-1.13s-1.46-1.3-2.16-2.26c-.73-.99-1.4-1.99-2.03-3-.62-1.01-1.24-2-1.83-2.96-.34-.55-.68-.94-1.03-1.19-.35-.25-1.01-.37-1.97-.37h-1.13v6.36c.03.49.08.97.16,1.42.08.46.29.83.64,1.13s.93.45,1.74.45c.26,0,.48.03.66.08.18.05.29.3.31.74,0,.21-.05.4-.16.58-.1.18-.29.27-.55.27-1.66-.08-3.29-.12-4.88-.12-.78,0-1.53,0-2.26.02-.73.01-1.51.04-2.34.1ZM87.1,145.08h3.43c1.33,0,2.37-.18,3.14-.54.77-.36,1.35-.83,1.74-1.4s.64-1.17.76-1.79c.12-.62.18-1.2.18-1.71,0-.86-.19-1.69-.57-2.5-.38-.81-1.04-1.47-1.99-1.99-.95-.52-2.27-.78-3.96-.78-1.12,0-1.85.21-2.2.64-.35.43-.53,1.29-.53,2.59v7.49Z"/>
    <path class="cls-2" d="M107.61,157.64c-.26,0-.44-.09-.55-.27-.1-.18-.16-.38-.16-.58.03-.44.13-.69.31-.74.18-.05.4-.08.66-.08.83,0,1.41-.15,1.74-.45s.53-.68.6-1.13c.08-.45.12-.93.12-1.42l.08-15.48c0-1.22-.21-2-.62-2.34-.42-.34-1.08-.6-1.99-.78-.39-.08-.65-.15-.78-.21-.13-.06-.19-.29-.19-.68,0-.44.16-.68.47-.72s.68-.06,1.09-.06c1.46,0,2.63.12,3.53.35s1.69.65,2.38,1.25c.69.6,1.44,1.44,2.24,2.54l10.69,14.04h.12l-.08-13.38c0-.49-.04-.97-.12-1.42-.08-.45-.28-.83-.6-1.13-.33-.3-.9-.45-1.74-.45-.26,0-.48-.03-.66-.08-.18-.05-.3-.3-.35-.74,0-.21.06-.4.18-.58.12-.18.29-.27.53-.27.57.03,1.03.05,1.38.06.35.01.7.03,1.05.04.35.01.79.02,1.31.02s.95,0,1.29-.02c.34-.01.68-.03,1.03-.04.35-.01.8-.03,1.35-.06.26,0,.44.09.55.27.1.18.16.38.16.58-.03.44-.12.69-.29.74-.17.05-.4.08-.68.08-.81,0-1.38.15-1.72.45-.34.3-.54.68-.6,1.13-.07.46-.11.93-.14,1.42l-.08,19.66c-.03.21-.15.35-.37.41-.22.06-.42.1-.6.1-.49,0-.87-.17-1.13-.51l-14.7-19.66h-.12l.08,15.48c.03.49.07.97.14,1.42.06.46.27.83.6,1.13s.91.45,1.72.45c.29,0,.52.03.7.08.18.05.29.3.31.74,0,.21-.06.4-.18.58s-.29.27-.53.27c-.55-.03-1.01-.05-1.38-.06-.38-.01-.74-.03-1.09-.04-.35-.01-.79-.02-1.31-.02s-.94,0-1.27.02c-.33.01-.66.03-.99.04-.34.01-.79.03-1.37.06Z"/>
    <path class="cls-2" d="M144.94,158.3c-2.7,0-4.78-.47-6.24-1.42-1.46-.95-2.18-2.35-2.18-4.19,0-.94.32-1.71.96-2.32.64-.61,1.46-.92,2.48-.92.68.03,1.15.2,1.42.51.27.31.41.55.41.7,0,.05-.12.14-.35.25-.23.12-.47.33-.7.62s-.35.76-.35,1.38c0,1.17.36,2.1,1.09,2.79s1.89,1.03,3.47,1.03c1.12,0,2.07-.21,2.87-.64.79-.43,1.4-.99,1.81-1.68.42-.69.62-1.4.62-2.13,0-1.09-.31-1.99-.94-2.69s-1.44-1.31-2.44-1.81c-1-.51-2.06-.99-3.18-1.46-1.12-.47-2.18-1-3.18-1.6-1-.6-1.83-1.35-2.48-2.24-.65-.9-.99-2.02-1.01-3.37-.03-1.64.32-2.97,1.05-4,.73-1.03,1.74-1.78,3.04-2.26,1.3-.48,2.74-.72,4.33-.72,1.17,0,2.32.17,3.45.51s2.07.86,2.81,1.58c.74.72,1.11,1.66,1.11,2.83,0,.94-.32,1.71-.96,2.32s-1.46.92-2.48.92c-.68-.05-1.15-.23-1.42-.53-.27-.3-.41-.53-.41-.68,0-.08.16-.18.47-.29.31-.12.62-.33.94-.62s.47-.75.47-1.35c0-.99-.38-1.75-1.13-2.28-.75-.53-1.69-.8-2.81-.8-1.69,0-2.92.4-3.69,1.19-.77.79-1.15,1.68-1.15,2.67s.26,1.74.78,2.34c.52.6,1.3,1.18,2.34,1.75,1.17.62,2.35,1.2,3.55,1.74,1.2.53,2.31,1.12,3.33,1.77,1.03.65,1.85,1.46,2.48,2.44s.94,2.23.94,3.76c0,1.33-.41,2.51-1.23,3.55-.82,1.04-1.92,1.86-3.3,2.46-1.38.6-2.91.9-4.6.9Z"/>
    <path class="cls-2" d="M170.79,158.3c-2.18,0-4.19-.52-6.01-1.56-1.82-1.04-3.28-2.52-4.39-4.45-1.11-1.92-1.66-4.22-1.66-6.9s.52-4.97,1.56-6.96c1.04-1.99,2.52-3.54,4.43-4.64,1.91-1.1,4.17-1.66,6.77-1.66.94,0,1.9.09,2.91.27,1,.18,1.93.49,2.79.92.86.43,1.55.99,2.09,1.7.53.7.8,1.57.8,2.61.03,1.12-.31,2.1-1.01,2.95-.7.85-1.69,1.27-2.96,1.27-.78,0-1.33-.19-1.66-.57-.33-.38-.47-.66-.45-.84,0-.08.16-.21.49-.41.32-.19.65-.49.98-.9.32-.4.49-.94.49-1.62,0-1.17-.39-2.1-1.17-2.79-.78-.69-1.89-1.03-3.31-1.03-1.56,0-2.96.44-4.19,1.33-1.24.88-2.2,2.18-2.91,3.88-.7,1.7-1.05,3.79-1.05,6.26,0,2.08.37,3.97,1.11,5.67.74,1.7,1.78,3.06,3.12,4.06,1.34,1,2.89,1.5,4.66,1.5,1.4,0,2.61-.29,3.61-.88,1-.59,1.9-1.53,2.71-2.83.23-.44.65-.48,1.25-.12.23.16.42.35.55.57.13.22.1.45-.08.68-.99,1.25-1.92,2.19-2.81,2.83s-1.85,1.07-2.89,1.31c-1.04.23-2.29.35-3.74.35Z"/>
    <path class="cls-2" d="M182.96,157.64c-.26,0-.44-.09-.55-.27-.1-.18-.16-.38-.16-.58.03-.44.13-.69.31-.74.18-.05.4-.08.66-.08.7,0,1.23-.14,1.6-.43.36-.29.66-.66.88-1.13.22-.47.44-.95.64-1.44l6.83-16.15c.26-.62.31-1.1.16-1.42-.16-.32-.42-.56-.78-.7-.36-.14-.77-.25-1.21-.33-.39-.08-.65-.15-.78-.21-.13-.06-.19-.29-.19-.68,0-.44.16-.68.47-.72s.68-.06,1.09-.06c1.07,0,1.98.1,2.73.31.75.21,1.4.61,1.95,1.19.55.59,1.05,1.46,1.52,2.63l6.55,16.15c.18.44.38.9.58,1.36.21.47.49.85.84,1.15s.8.46,1.35.49c.29,0,.51.03.68.08.17.05.27.3.29.74,0,.21-.06.4-.18.58-.12.18-.29.27-.53.27-.83-.05-1.56-.08-2.18-.1-.62-.01-1.33-.02-2.11-.02-1.53,0-3.15.04-4.84.12-.26,0-.44-.09-.55-.27-.1-.18-.16-.38-.16-.58.03-.44.13-.69.31-.74.18-.05.4-.08.66-.08,1.27,0,1.97-.23,2.09-.7.12-.47,0-1.23-.37-2.3l-1.33-3.24h-9.63c-.39.99-.67,1.7-.84,2.15-.17.44-.27.73-.31.86-.04.13-.07.21-.1.23-.29.88-.44,1.54-.45,1.97-.01.43.19.71.62.84.43.13,1.15.19,2.16.19.29,0,.51.03.68.08.17.05.27.3.29.74,0,.21-.06.4-.18.58-.12.18-.29.27-.53.27-.83-.05-1.55-.08-2.16-.1-.61-.01-1.31-.02-2.09-.02-.52,0-.96,0-1.31.02-.35.01-.71.03-1.07.04-.36.01-.83.03-1.4.06ZM190.37,148.04h8.19l-3.94-10.02h-.12l-4.13,10.02Z"/>
    <path class="cls-2" d="M209.95,157.64c-.23,0-.41-.09-.53-.27s-.18-.38-.18-.58c.03-.44.14-.69.33-.74.19-.05.42-.08.68-.08.83,0,1.42-.15,1.76-.45.34-.3.55-.68.64-1.13.09-.45.14-.93.14-1.42v-15.48c0-.49-.05-.97-.14-1.42-.09-.45-.31-.83-.64-1.13-.34-.3-.92-.45-1.76-.45-.26,0-.49-.03-.68-.08-.2-.05-.31-.3-.33-.74,0-.21.06-.4.18-.58s.29-.27.53-.27c.83.03,1.62.05,2.38.08.75.03,1.52.04,2.3.04h5.85c.49,0,1.14.04,1.93.12s1.64.23,2.54.47c.9.23,1.75.61,2.55,1.13.81.52,1.46,1.21,1.97,2.07.51.86.76,1.94.76,3.24,0,1.22-.28,2.33-.84,3.32-.56.99-1.3,1.83-2.22,2.54-.92.7-1.96,1.24-3.12,1.62-1.16.38-2.33.57-3.53.57-.57,0-1.2-.04-1.87-.12-.68-.08-1.35-.25-2.03-.51v5.62c.03.49.08.97.16,1.42.08.46.29.83.64,1.13s.93.45,1.74.45c.29,0,.52.03.7.08.18.05.29.3.31.74,0,.21-.06.4-.18.58-.12.18-.29.27-.53.27-1.66-.08-3.29-.12-4.88-.12-.78,0-1.54,0-2.28.02-.74.01-1.53.04-2.36.1ZM219.39,146.21c.6,0,1.27-.1,2.01-.29.74-.19,1.46-.52,2.15-.98.69-.45,1.25-1.08,1.7-1.87.44-.79.66-1.8.66-3.02,0-1.33-.26-2.37-.78-3.14-.52-.77-1.16-1.33-1.93-1.7-.77-.36-1.53-.6-2.28-.7-.75-.1-1.36-.16-1.83-.16-.62,0-1.12.07-1.48.2-.36.13-.62.41-.76.84-.14.43-.21,1.09-.21,1.97v8.42c.26.1.64.2,1.13.29.49.09,1.04.14,1.64.14Z"/>
    <path class="cls-2" d="M234.21,157.64c-.23,0-.4-.09-.51-.27-.1-.18-.16-.38-.16-.58.03-.44.13-.69.31-.74.18-.05.4-.08.66-.08.83,0,1.42-.15,1.76-.45.34-.3.55-.68.64-1.13.09-.45.14-.93.14-1.42v-15.48c0-.49-.05-.97-.14-1.42-.09-.45-.31-.83-.64-1.13-.34-.3-.92-.45-1.76-.45-.26,0-.48-.03-.66-.08-.18-.05-.29-.3-.31-.74,0-.21.05-.4.16-.58.1-.18.27-.27.51-.27.86.03,1.65.05,2.38.08.73.03,1.48.04,2.26.04h12.25c.29,0,.53.07.72.2.19.13.29.38.29.74l.12,5.46c0,.26-.12.46-.37.58s-.47.19-.68.19c-.29,0-.55-.06-.78-.17-.23-.12-.38-.29-.43-.53-.18-1.17-.4-2.11-.64-2.83-.25-.71-.61-1.23-1.09-1.56-.48-.33-1.18-.5-2.09-.53h-5.23v9.91h7.06c.21.03.36.13.45.31.09.18.14.38.14.58,0,.18-.05.36-.14.53-.09.17-.24.25-.45.25h-7.06v7.37c.03.34.08.71.16,1.11s.31.75.68,1.03c.38.29,1.01.42,1.89.39h3.59c.91-.03,1.6-.17,2.09-.45.48-.27.86-.73,1.15-1.38.29-.65.6-1.55.94-2.69.1-.26.28-.43.53-.51.25-.08.51-.09.8-.04.21.03.42.12.64.27.22.16.32.37.29.62l-.78,4.91c-.08.36-.2.59-.37.68-.17.09-.42.14-.76.14h-12.87c-.78,0-1.54,0-2.28.02-.74.01-1.54.04-2.4.1Z"/>
    <path class="cls-3" d="M69.28,192.4c-.01.32-.14.59-.36.8-.23.21-.5.32-.8.32-.35,0-.63-.11-.84-.32-.21-.21-.31-.48-.31-.8v-13.16c0-.32.11-.59.33-.8.22-.21.51-.32.86-.32.29,0,.55.11.78.32.23.21.34.48.34.8v13.16Z"/>
    <path class="cls-3" d="M89.89,178.12c.29,0,.53.1.71.3.18.2.27.44.27.74v13.24c0,.32-.11.59-.32.8-.21.21-.48.32-.8.32-.16,0-.32-.03-.48-.09s-.29-.14-.37-.24l-9.04-11.7.51-.31v11.33c0,.28-.1.52-.29.71-.19.2-.43.3-.73.3-.31,0-.55-.1-.74-.3-.18-.2-.27-.44-.27-.71v-13.27c0-.32.11-.59.32-.8.21-.21.48-.32.8-.32.16,0,.33.03.52.1.18.07.32.16.41.3l8.82,11.48-.33.31v-11.15c0-.29.09-.54.28-.74.18-.2.43-.3.74-.3Z"/>
    <path class="cls-3" d="M99.99,180.23c-.31,0-.57-.1-.79-.3-.22-.2-.33-.45-.33-.76s.11-.58.33-.77c.22-.19.48-.29.79-.29h9.99c.32,0,.59.1.8.3.21.2.32.45.32.76s-.11.58-.32.77c-.21.19-.48.29-.8.29h-9.99ZM104.98,193.52c-.35,0-.64-.11-.86-.32-.22-.21-.33-.48-.33-.8v-13.18h2.38v13.18c0,.32-.11.59-.34.8-.23.21-.51.32-.85.32Z"/>
    <path class="cls-3" d="M120.21,178.12h7.59c.32,0,.59.1.8.31.21.21.32.46.32.77s-.11.56-.32.75c-.21.19-.48.29-.8.29h-6.62l.22-.37v4.93l-.2-.22h5.61c.32,0,.59.1.8.31.21.21.32.47.32.79s-.11.56-.32.75c-.21.19-.48.29-.8.29h-5.57l.15-.2v5.08l-.15-.18h6.56c.32,0,.59.11.8.32.21.21.32.46.32.74,0,.31-.11.56-.32.76-.21.2-.48.3-.8.3h-7.59c-.32,0-.59-.11-.8-.32-.21-.21-.32-.48-.32-.8v-13.16c0-.32.11-.59.32-.8.21-.21.48-.32.8-.32Z"/>
    <path class="cls-3" d="M138.47,193.52c-.35,0-.66-.11-.92-.32-.26-.21-.4-.48-.4-.8v-13.16c0-.32.11-.59.32-.8.21-.21.48-.32.8-.32h6.2c.79,0,1.52.2,2.18.58.66.39,1.19.92,1.59,1.61s.6,1.47.6,2.37c0,.59-.12,1.14-.35,1.67-.23.53-.55,1-.95,1.41s-.84.73-1.34.95l-.24-.44c.45.18.85.41,1.19.71s.6.65.8,1.06c.2.4.3.85.32,1.35.04.46.08.83.12,1.13.04.3.09.55.17.74.07.19.21.34.4.44.26.15.43.37.49.66.07.29,0,.56-.19.79-.13.18-.3.29-.51.34-.21.05-.41.06-.62.02-.21-.04-.37-.09-.51-.16-.25-.15-.49-.36-.73-.63-.23-.27-.43-.65-.57-1.13-.15-.48-.22-1.12-.22-1.91,0-.37-.06-.68-.18-.94-.12-.26-.28-.47-.48-.65-.21-.18-.45-.3-.73-.38-.28-.07-.59-.11-.92-.11h-4.66l.31-.46v5.26c0,.32-.09.59-.26.8-.18.21-.42.32-.73.32ZM139.17,185.67h5.26c.34-.02.66-.15.97-.4.31-.25.56-.6.77-1.04.21-.45.31-.95.31-1.51,0-.7-.21-1.29-.63-1.77-.42-.48-.91-.71-1.48-.71h-5.15l.24-.55v6.45l-.29-.46Z"/>
    <path class="cls-3" d="M159.94,192.4c-.01.32-.14.59-.36.8-.23.21-.5.32-.8.32-.35,0-.63-.11-.84-.32-.21-.21-.31-.48-.31-.8v-13.16c0-.32.11-.59.33-.8.22-.21.51-.32.86-.32.29,0,.55.11.78.32.23.21.34.48.34.8v13.16Z"/>
    <path class="cls-3" d="M183.04,185.82c0,1.11-.18,2.15-.55,3.11-.37.96-.88,1.8-1.55,2.52-.67.72-1.46,1.28-2.36,1.68-.91.4-1.91.61-2.99.61s-2.08-.2-2.98-.61c-.9-.4-1.69-.96-2.35-1.68s-1.18-1.56-1.55-2.52c-.37-.96-.55-2-.55-3.11s.18-2.15.55-3.11c.37-.96.88-1.8,1.55-2.52s1.45-1.28,2.35-1.68c.9-.4,1.9-.6,2.98-.6s2.08.2,2.99.6c.91.4,1.7.96,2.36,1.68.67.72,1.18,1.56,1.55,2.52.37.96.55,2,.55,3.11ZM180.66,185.82c0-1.08-.22-2.06-.66-2.93-.44-.87-1.04-1.55-1.79-2.05s-1.63-.75-2.63-.75-1.86.25-2.62.75c-.76.5-1.36,1.18-1.78,2.04-.43.86-.64,1.84-.64,2.94s.21,2.06.64,2.93,1.02,1.55,1.78,2.04c.76.5,1.64.75,2.62.75s1.87-.25,2.63-.75c.76-.5,1.35-1.18,1.79-2.04.44-.87.66-1.84.66-2.93Z"/>
    <path class="cls-3" d="M192.56,193.52c-.35,0-.66-.11-.92-.32-.26-.21-.4-.48-.4-.8v-13.16c0-.32.11-.59.32-.8.21-.21.48-.32.8-.32h6.2c.79,0,1.52.2,2.18.58.66.39,1.19.92,1.59,1.61s.6,1.47.6,2.37c0,.59-.12,1.14-.35,1.67-.23.53-.55,1-.95,1.41s-.84.73-1.34.95l-.24-.44c.45.18.85.41,1.19.71s.6.65.8,1.06c.2.4.3.85.32,1.35.04.46.08.83.12,1.13.04.3.09.55.17.74.07.19.21.34.4.44.26.15.43.37.49.66.07.29,0,.56-.19.79-.13.18-.3.29-.51.34-.21.05-.41.06-.62.02-.21-.04-.37-.09-.51-.16-.25-.15-.49-.36-.73-.63-.23-.27-.43-.65-.57-1.13-.15-.48-.22-1.12-.22-1.91,0-.37-.06-.68-.18-.94-.12-.26-.28-.47-.48-.65-.21-.18-.45-.3-.73-.38-.28-.07-.59-.11-.92-.11h-4.66l.31-.46v5.26c0,.32-.09.59-.26.8-.18.21-.42.32-.73.32ZM193.27,185.67h5.26c.34-.02.66-.15.97-.4.31-.25.56-.6.77-1.04.21-.45.31-.95.31-1.51,0-.7-.21-1.29-.63-1.77-.42-.48-.91-.71-1.48-.71h-5.15l.24-.55v6.45l-.29-.46Z"/>
    <path class="cls-3" d="M216.46,193.74c-1.06,0-2-.14-2.82-.43s-1.61-.77-2.35-1.44c-.16-.13-.28-.28-.36-.45-.08-.17-.12-.34-.12-.52,0-.28.1-.53.31-.75.21-.22.46-.33.77-.33.23,0,.45.08.66.24.56.51,1.14.9,1.75,1.17.61.26,1.32.4,2.15.4.59,0,1.12-.09,1.62-.29.49-.19.88-.45,1.18-.77.29-.32.44-.7.44-1.12-.02-.53-.17-.96-.46-1.3-.29-.34-.72-.62-1.29-.86-.56-.23-1.24-.42-2.04-.57-.73-.15-1.39-.34-1.98-.57-.59-.23-1.08-.53-1.48-.89-.4-.36-.72-.79-.94-1.29-.22-.5-.33-1.07-.33-1.72,0-.89.23-1.67.7-2.32.47-.65,1.11-1.16,1.91-1.51.81-.35,1.72-.53,2.73-.53.92,0,1.79.14,2.6.43.81.29,1.46.67,1.96,1.16.35.31.53.64.53.99,0,.28-.11.53-.32.75s-.46.33-.74.33c-.21,0-.38-.06-.53-.18-.23-.25-.55-.47-.95-.67-.4-.2-.82-.36-1.27-.5-.45-.13-.88-.2-1.29-.2-.66,0-1.23.09-1.69.28s-.83.43-1.08.75c-.25.31-.37.69-.37,1.13,0,.5.14.91.43,1.22.29.32.69.57,1.2.77.51.2,1.1.38,1.76.54.81.18,1.53.37,2.17.59.64.22,1.18.5,1.62.85s.78.77,1.01,1.29c.23.51.35,1.15.35,1.91,0,.88-.25,1.65-.75,2.31-.5.66-1.16,1.17-1.97,1.54-.81.37-1.72.55-2.72.55Z"/>
  </g>
  <g>
    <path class="cls-3" d="M98.8,117.46c30.18-9.33,55.01-34.44,63.36-64.98,5.92-9.58,10.81-21.81,6.19-32.82,0,0-.06-.15-.06-.15.14.48.62.86,1.11.92.36.01.36.01.58-.07-.11.03-.29.2-.44.3-6.45,5.72-9.02,14.91-8.04,23.34.31,3.04,1.07,6.04,2.05,8.98l-.28.11c-5.6-10.96-4.93-25.92,4.5-34.61,1.23-1.15,2.58-1.18,3.16-.03,5.54,11.74.34,25.22-6.37,35.3-6.43,21.65-22.77,42.97-43.76,54.68-6.9,3.96-14.21,7.28-21.91,9.32,0,0-.07-.29-.07-.29h0Z"/>
    <path class="cls-3" d="M160.31,63.09c12.83,1.69,20.3-1.63,27.9-12.03,0,0,.75,2.12.75,2.12-5.65-.61-11.34.05-16.84,1.43-3.36.93-6.6,2.1-9.76,3.66,0,0-.18-.24-.18-.24,7.07-6.82,17.67-9.41,27.2-7.38,0,0,2.38.38,2.38.38l-1.63,1.73c-5.81,6.84-12.13,11.83-21.6,11.63-2.81.06-5.57-.46-8.27-1l.06-.29h0Z"/>
    <path class="cls-3" d="M155.11,71.6c8.43-5.11,20.32-7.5,28.57-.75,0,0-1.55.05-1.55.05-.09-.56,2.09-.24,1.89.42.19.44-.04,1-.26,1.22-7.96,8.7-21.48,9.25-32,5.56,0,0,.05-.3.05-.3,2.78.05,5.52.1,8.22,0,7.55-.43,16.33-1.45,21.95-6.72-.12.08-.28.75-.12,1.03-.21.66,1.98.98,1.88.43l-1.55.05c-5.36-4.96-13.34-5.18-20.09-3.31-2.34.64-4.66,1.48-6.84,2.56l-.15-.26h0Z"/>
    <path class="cls-3" d="M145.76,86.33c4.93-3.15,11.26-3.59,16.86-2.25,3.86.83,7.38,2.67,10.82,4.54-.34.39-.9,1.29-1.28,1.59-.94.84-2,1.55-3.07,2.18-5.98,3.63-13.45,5-20.21,2.91-2.7-.71-5.15-2.07-7.36-3.62l.14-.27c5.02,1.53,10.08,2.43,15.28,1.77,4.84-.59,9.88-1.82,13.85-4.78,0,0,.36,1.55.36,1.55-7.24-4.86-17.06-7.56-25.22-3.38,0,0-.17-.25-.17-.25h0Z"/>
    <path class="cls-3" d="M135.28,97.1c9.75-1.01,21.96,1.04,26.58,10.84-1.81.9-3.82,1.39-5.6,1.64-4.37.66-8.79.93-13.19.48-5.79-.65-11.79-2.14-16.54-5.63,0,0,.14-.26.14-.26,2.75.92,5.5,1.53,8.27,1.97,5.55.88,11.19,1.08,16.8,1.18,2.6-.03,5.71-.12,8.08-.9,0,0-.52,1.51-.52,1.51-2.99-6.42-10.31-9.1-16.93-10.07-2.33-.32-4.7-.5-7.06-.44l-.03-.3h0Z"/>
    <path class="cls-3" d="M160.14,57.66c.84-7.02-2.92-13.72-7.7-18.57-.46-.43-1.71-1.56-2.19-2-1.75-1.51-4.47-3.35-6.45-4.58,0,0,.99.12.99.12.36-.12.25-.25.17.11-.92,7.73,9.31,22.2,13.45,28.99,0,0-.23.2-.23.2-2.23-1.9-4.27-4.01-6.16-6.25-3.79-4.55-7.11-9.61-8.75-15.39-.62-2.44-2.15-8.47.78-9.87,0,0,.55-.2.55-.2.12.1,3.54,2.56,3.79,2.75,1.82,1.5,3.69,3.2,5.3,4.93.43.5,1.53,1.88,1.97,2.41,0,0,1.16,1.72,1.16,1.72,2.91,4.61,4.73,10.27,3.59,15.71,0,0-.29-.07-.29-.07h0Z"/>
    <path class="cls-3" d="M153.34,74.84c-.2-7.68-3.69-15.44-9.89-20.08-1.94-1.58-4.3-2.71-6.58-3.73,0,0,1.65-.87,1.65-.87,0,0,0,.35,0,.35.38,7.36,2.87,14.6,7.07,20.66,1.41,2.15,3.14,4.07,4.86,6.1l-.19.23c-9.91-5.72-16.28-18.02-13.85-29.41,2.86,1.48,5.9,2.93,8.27,5.13,6.22,5.24,9.43,13.59,8.94,21.62,0,0-.3-.02-.3-.02h0Z"/>
    <path class="cls-3" d="M141.44,89.39c-.58-9.89-3.44-21.85-13.1-26.53,0,0,1.42-.32,1.42-.32-.49,1.11-.68,2.35-.77,3.56-.46,9.91,4.94,18.9,10.45,26.76,0,0-.22.21-.22.21-2.29-1.84-4.46-3.86-6.27-6.19-5.46-6.65-8.59-16.08-5.69-24.5.24-.7.8-1.46,1.22-2.09,0,0,.88.48.88.48,7.57,3.93,10.98,12.58,12,20.6.35,2.66.5,5.34.38,8.02h-.3Z"/>
    <path class="cls-3" d="M129.27,101.75c-1.01-10.64-5.53-22.03-15.18-27.53.21.13.48.18.71.13.18-.03.38-.15.42-.2-.15.3-.27.7-.35,1.09-1.09,7.49,1.64,15.06,4.79,21.79,1.26,2.52,2.7,4.98,4.22,7.45l-.23.19c-8.21-7.31-13.84-18.96-11.2-30.06.3-1.2,1.2-3.2,2.82-2.47,2.42,1.65,4.71,3.51,6.51,5.81,3.62,4.45,5.78,9.87,6.91,15.42.56,2.76.9,5.55.89,8.36h-.3Z"/>
  </g>
  <line class="cls-1" x1="34.64" y1="167.42" x2="253.67" y2="167.42"/>
</svg>